# xmcd
#
# Track frame offsets: 
#        150
#        15706
#        34617
#        54828
#        73191
#        88758
#        107569
#        120836
#        139898
#        155783
#        172458
#        188670
#        203126
#        224059
#        242256
#        261032
#        280776
#        300915
#        313787
#
# Disc length: 4392 seconds
#
# Revision: 0
# Processed by: cddbd v1.5.2PL0 Copyright (c) Steve Scherf et al.
# Submitted via: ExactAudioCopy v0.99pb5
#
DISCID=0c112613
DTITLE=Various Artist - Nos Années 80 - CD1
DYEAR=2007
DGENRE=Pop
TTITLE0=Images - Les Démons De Minuit
TTITLE1=Début de Soirée - Nuit De Folie
TTITLE2=Jeanne Mas - En Rouge Et Noir
TTITLE3=Partenaire Particulier - Partenaire Particulier
TTITLE4=Jean-Pierre Mader - Macumba
TTITLE5=Chagrin d'Amour - Chacun Fait C'Qui Lui Plait
TTITLE6=Julien Clerc - Melissa
TTITLE7=Renaud - Miss Maggie
TTITLE8=Vivien Savage - La P'Tite Lady
TTITLE9=Philippe Lafontaine - Coeur De Lou
TTITLE10=Caroline Loeb - C'Est La Ouate
TTITLE11=Laroche Valmont - T'As Le Look Coco
TTITLE12=Stéphanie - Ouragan
TTITLE13=Caroline Legrand - J'Aurais Voulu Te Dire
TTITLE14=Daniel Lavoie - Ils S'Aiment
TTITLE15=Cookie Dingler - Femme Libérée
TTITLE16=Louis Bertignac Et Les Visiteurs - Ces Idées-Là
TTITLE17=Mano Negra - Mala Vida
TTITLE18=Rose Laurens - Africa
EXTD=
EXTT0=
EXTT1=
EXTT2=
EXTT3=
EXTT4=
EXTT5=
EXTT6=
EXTT7=
EXTT8=
EXTT9=
EXTT10=
EXTT11=
EXTT12=
EXTT13=
EXTT14=
EXTT15=
EXTT16=
EXTT17=
EXTT18=
PLAYORDER=
